<svg xmlns="http://www.w3.org/2000/svg" xmlns:xlink="http://www.w3.org/1999/xlink" width="118" height="18" viewBox="0 0 126 18">
    <defs>
        <ellipse id="prefix__c" cx="9.254" cy="8.949" rx="9.212" ry="8.949"/>
    </defs>
    <g fill="none">
        <g>
            <g transform="translate(53.857) translate(.363)">
                <use fill="#000"  xlink:href="#prefix__c"/>
                <use fill="#FFF" xlink:href="#prefix__c"/>
            </g>
            <g fill="#5F9600">
                <path d="M4.635 2.314C4.631 4.502 6.395 6.282 8.583 6.3h.685v-.685c0-2.188-1.767-3.965-3.955-3.978H3.958C1.768 1.647 0 3.424 0 5.613v.685h.684C2.872 6.28 4.636 4.5 4.632 2.313l.003.001zM8.68 7.108c-.587.019-1.171-.079-1.72-.288-.147.643-.427 1.25-.821 1.779.66.622 1.488 1.034 2.382 1.185.316-.857.37-1.788.158-2.676zM7.784 10.434c-.37-.091-.727-.224-1.066-.397-.188.452-.444.872-.76 1.246.486.255 1.005.439 1.542.547.149-.453.244-.921.284-1.396zM3.312 11.283c-.316-.374-.572-.794-.76-1.246-.34.174-.7.308-1.072.398.048.473.146.94.292 1.392.537-.108 1.055-.292 1.54-.544zM5.587 9.23l-.952.951-.953-.952c-.135.129-.277.25-.426.361.196.529.503 1.01.9 1.41l.479.48.479-.48c.397-.4.704-.881.9-1.41-.15-.112-.292-.232-.427-.36zM.59 7.108C.387 7.997.44 8.926.75 9.785c.893-.153 1.722-.566 2.383-1.186-.394-.53-.674-1.136-.822-1.78-.55.202-1.133.3-1.72.29z" transform="translate(53.857) rotate(180 7.211 8.197)"/>
                <path d="M4.635 9.025l.48-.48c.563-.567.942-1.292 1.085-2.08-.626-.358-1.162-.856-1.565-1.454-.403.598-.939 1.096-1.565 1.454.143.788.522 1.513 1.086 2.08l.48.48zM3.888 11.89c-.182.114-.37.217-.566.307.194.477.477.913.834 1.285l.48.48.479-.48c.357-.372.64-.808.834-1.285-.196-.09-.385-.192-.567-.308l-.744.747-.75-.747zM5.313.818c.184.001.367.013.55.034V0H3.407v.852c.182-.022.366-.033.55-.034h1.355z" transform="translate(53.857) rotate(180 7.211 8.197)"/>
            </g>
        </g>
    </g>
</svg>
